<?xml version="1.0" encoding="UTF-8" standalone="no"?><!DOCTYPE svg PUBLIC "-//W3C//DTD SVG 1.1//EN" "http://www.w3.org/Graphics/SVG/1.1/DTD/svg11.dtd"><svg width="100%" height="100%" viewBox="0 0 4167 4167" version="1.1" xmlns="http://www.w3.org/2000/svg" xmlns:xlink="http://www.w3.org/1999/xlink" xml:space="preserve" xmlns:serif="http://www.serif.com/" style="fill-rule:evenodd;clip-rule:evenodd;stroke-linejoin:round;stroke-miterlimit:2;"><g><g><path d="M1528.31,2075.85l824.541,1089.36l-713.198,0l-671.068,-941.903l-0,941.903l-592.827,0l-0,-2130.57l592.827,-0l-0,920.838l677.087,-920.838l707.179,-0l-824.541,1041.21Z" style="fill:#2286d3;fill-rule:nonzero;stroke:#000;stroke-width:20.83px;"/><path d="M4137.36,2551.32c0,118.365 -30.092,225.696 -90.278,321.993c-60.185,96.296 -148.457,172.531 -264.816,228.705c-116.359,56.173 -255.788,84.259 -418.289,84.259c-246.761,0 -449.887,-59.182 -609.378,-177.547c-159.492,-118.365 -246.259,-286.884 -260.303,-505.558l628.939,-0c6.018,74.229 29.089,129.399 69.213,165.51c40.124,36.111 89.275,54.167 147.455,54.167c52.16,-0 92.786,-13.04 121.875,-39.121c29.09,-26.08 43.635,-63.194 43.635,-111.343c-0,-64.198 -29.09,-113.851 -87.269,-148.959c-58.18,-35.108 -150.464,-73.727 -276.854,-115.857c-134.414,-46.142 -245.255,-91.281 -332.524,-135.417c-87.269,-44.136 -162.501,-110.341 -225.696,-198.613c-63.195,-88.272 -94.792,-201.621 -94.792,-340.048c-0,-132.408 34.105,-246.259 102.315,-341.552c68.21,-95.294 161.498,-167.517 279.863,-216.668c118.365,-49.152 252.779,-73.727 403.243,-73.727c244.754,-0 439.855,57.677 585.304,173.033c145.448,115.355 225.194,277.355 239.237,485.998l-634.957,-0c-8.025,-66.204 -28.588,-115.356 -61.69,-147.455c-33.102,-32.099 -76.737,-48.148 -130.904,-48.148c-46.142,-0 -82.253,12.037 -108.334,36.111c-26.08,24.074 -39.12,60.186 -39.12,108.334c-0,60.186 28.588,107.331 85.764,141.436c57.176,34.105 146.953,72.223 269.33,114.353c134.415,48.148 245.758,95.293 334.03,141.435c88.272,46.143 164.507,113.35 228.705,201.622c64.198,88.272 96.296,202.624 96.296,343.057Z" style="fill:#d8315b;fill-rule:nonzero;stroke:#000;stroke-width:20.83px;"/></g><g><path d="M1197.58,2075.85l824.541,1089.36l-713.198,0l-671.068,-941.903l-0,941.903l-592.827,0l-0,-2130.57l592.827,-0l-0,920.838l677.087,-920.838l707.179,-0l-824.541,1041.21Z" style="fill:#fff;fill-rule:nonzero;stroke:#000;stroke-width:20.83px;"/><path d="M3806.62,2551.32c0,118.365 -30.092,225.696 -90.278,321.993c-60.185,96.296 -148.457,172.531 -264.816,228.705c-116.359,56.173 -255.788,84.259 -418.289,84.259c-246.761,0 -449.887,-59.182 -609.378,-177.547c-159.492,-118.365 -246.259,-286.884 -260.303,-505.558l628.939,-0c6.018,74.229 29.089,129.399 69.213,165.51c40.124,36.111 89.275,54.167 147.454,54.167c52.161,-0 92.786,-13.04 121.876,-39.121c29.09,-26.08 43.635,-63.194 43.635,-111.343c-0,-64.198 -29.09,-113.851 -87.269,-148.959c-58.18,-35.108 -150.464,-73.727 -276.854,-115.857c-134.414,-46.142 -245.256,-91.281 -332.525,-135.417c-87.269,-44.136 -162.5,-110.341 -225.695,-198.613c-63.195,-88.272 -94.792,-201.621 -94.792,-340.048c-0,-132.408 34.105,-246.259 102.315,-341.552c68.21,-95.294 161.498,-167.517 279.863,-216.668c118.364,-49.152 252.779,-73.727 403.242,-73.727c244.755,-0 439.856,57.677 585.304,173.033c145.449,115.355 225.195,277.355 239.238,485.998l-634.957,-0c-8.025,-66.204 -28.588,-115.356 -61.69,-147.455c-33.102,-32.099 -76.737,-48.148 -130.904,-48.148c-46.142,-0 -82.253,12.037 -108.334,36.111c-26.08,24.074 -39.12,60.186 -39.12,108.334c-0,60.186 28.588,107.331 85.764,141.436c57.176,34.105 146.953,72.223 269.33,114.353c134.414,48.148 245.758,95.293 334.03,141.435c88.272,46.143 164.507,113.35 228.705,201.622c64.197,88.272 96.296,202.624 96.296,343.057Z" style="fill:#fff;fill-rule:nonzero;stroke:#000;stroke-width:20.83px;"/></g></g></svg>